# xmcd CD database file
#
# Track frame offsets:
#	150
#	27953
#	53115
#	82060
#	101537
#	125585
#	150694
#	172397
#	198091
#	220954
#	240794
#	270624
#	290909
#	319247
#
# Disc length: 4547 seconds
#
# Revision: 2
# Processed by: cddbd v1.5.1PL0 Copyright (c) Steve Scherf et al.
# Submitted via: CDex 1.50
#
DISCID=cd11c10e
DTITLE=Ketil Bjonstad - Early Years
DYEAR=2000
DGENRE=Jazz
TTITLE0=Blue Man
TTITLE1=Blue Mountain
TTITLE2=Ocean Dreams
TTITLE3=Summer Night by the Fjord
TTITLE4=The Visitor
TTITLE5=Selena
TTITLE6=Are You There Somewhere, Tonight
TTITLE7=Open Harbours
TTITLE8=Tide
TTITLE9=Farewell in Advance
TTITLE10=Days by the Shore
TTITLE11=Dedication
TTITLE12=Closer
TTITLE13=The Clown Sings
EXTD=YEAR: 2000
EXTT0=
EXTT1=
EXTT2=
EXTT3=
EXTT4=
EXTT5=
EXTT6=
EXTT7=
EXTT8=
EXTT9=
EXTT10=
EXTT11=
EXTT12=
EXTT13=
PLAYORDER=
